<svg width="512" height="512" viewBox="0 0 512 512" fill="none" xmlns="http://www.w3.org/2000/svg">
<rect width="512" height="512" rx="10" fill="#1C1D20"/>
<path d="M221.028 313.996C221.028 328.01 219.604 340.314 216.756 350.91C213.908 361.392 209.863 370.108 204.622 377.058C199.381 384.121 193.001 389.419 185.481 392.951C177.962 396.483 169.531 398.249 160.188 398.249C156.998 398.249 152.612 397.964 147.029 397.395C141.561 396.939 135.864 396.198 129.939 395.173C124.015 394.261 118.318 393.008 112.85 391.413C107.381 389.932 103.108 388.166 100.032 386.115C100.032 385.66 100.089 384.349 100.203 382.185C100.317 380.134 100.488 376.944 100.716 372.614C100.944 368.399 101.285 362.93 101.741 356.208C102.197 349.486 102.767 341.226 103.45 331.428L127.547 332.453C128.003 337.01 128.629 341.739 129.427 346.638C130.224 351.423 131.022 355.866 131.819 359.968C132.731 364.753 133.699 369.481 134.725 374.152C137.003 374.608 139.339 375.064 141.731 375.52C143.782 375.861 145.947 376.146 148.226 376.374C150.618 376.602 152.954 376.716 155.232 376.716C161.499 376.716 166.512 375.121 170.271 371.931C174.145 368.741 177.05 364.183 178.987 358.259C180.924 352.334 182.177 345.157 182.747 336.726C183.431 328.181 183.772 318.61 183.772 308.015V166.169C183.772 157.168 182.861 150.332 181.038 145.661C178.646 144.75 175.968 144.237 173.006 144.123C170.044 143.895 166.854 143.781 163.436 143.781H148.055V124.982C155.916 124.071 164.119 123.444 172.664 123.103C181.323 122.647 190.836 122.419 201.204 122.419C212.256 122.419 222.509 122.533 231.966 122.761C241.536 122.989 249.91 123.729 257.088 124.982V143.781H241.365C237.947 143.781 234.757 143.895 231.795 144.123C228.833 144.237 226.155 144.75 223.763 145.661C221.94 150.674 221.028 157.567 221.028 166.34V313.996ZM307.852 241.022L327.334 198.127L281.533 221.198L274.355 194.709L323.232 183.43L280.85 154.548L303.237 135.065L333.486 173.347L338.613 121.906L369.033 130.622L349.038 175.568L395.181 154.035L401.846 180.183L353.823 190.095L395.181 223.933L372.622 242.048L342.715 200.178L338.101 253.498L307.852 241.022Z" fill="#FAFAFA"/>
</svg>
